# xmcd
#
# Track frame offsets: 
#        150
#        13909
#        30589
#        44932
#        60203
#        73821
#        88021
#        108882
#        123698
#        140143
#        154487
#        170326
#        186292
#        200376
#        213952
#
# Disc length: 3036 seconds
#
# Revision: 0
# Processed by: cddbd v1.5.2PL0 Copyright (c) Steve Scherf et al.
# Submitted via: ExactAudioCopy v0.99pb5
#
DISCID=e10bda0f
DTITLE=Marco - Schlagerparty
DYEAR=2000
DGENRE=Schlager
TTITLE0=Es war in Griechenland
TTITLE1=Mit dir allein
TTITLE2=Sierra Madre Del Sur
TTITLE3=Zigeuner der Liebe
TTITLE4=Du bist meine Liebe
TTITLE5=Verrückt nach dir
TTITLE6=Ohne dich (ist alles anders)
TTITLE7=Liebe auf den ersten Blick
TTITLE8=Lagune bei Nacht
TTITLE9=Varadero
TTITLE10=Bist du sauer
TTITLE11=Du bist meine Traumfrau
TTITLE12=Du wirst brennen heute Nacht
TTITLE13=Du allein
TTITLE14=Ein Engel der Nacht
EXTD=
EXTT0=
EXTT1=
EXTT2=
EXTT3=
EXTT4=
EXTT5=
EXTT6=
EXTT7=
EXTT8=
EXTT9=
EXTT10=
EXTT11=
EXTT12=
EXTT13=
EXTT14=
PLAYORDER=
